<mxfile host="Electron" modified="2024-03-18T06:39:37.736Z" agent="Mozilla/5.0 (Windows NT 10.0; Win64; x64) AppleWebKit/537.36 (KHTML, like Gecko) draw.io/24.0.4 Chrome/120.0.6099.109 Electron/28.1.0 Safari/537.36" etag="aSO_B2L5iXWR68Hfl-Q8" version="24.0.4" type="device">
  <diagram name="Page-1" id="_ND4ITzbnkIOsHbf0bwX">
    <mxGraphModel dx="819" dy="487" grid="1" gridSize="10" guides="1" tooltips="1" connect="1" arrows="1" fold="1" page="1" pageScale="1" pageWidth="1169" pageHeight="827" math="0" shadow="0">
      <root>
        <mxCell id="0" />
        <mxCell id="1" parent="0" />
        <mxCell id="3OgiTbT7xKRAJT_PE359-1" value="Solar&lt;div&gt;&lt;font style=&quot;font-size: 8px;&quot;&gt;(6V/2W)&lt;/font&gt;&lt;/div&gt;" style="shape=parallelogram;perimeter=parallelogramPerimeter;whiteSpace=wrap;html=1;fixedSize=1;" parent="1" vertex="1">
          <mxGeometry x="40" y="80" width="100" height="40" as="geometry" />
        </mxCell>
        <mxCell id="3OgiTbT7xKRAJT_PE359-17" style="edgeStyle=orthogonalEdgeStyle;rounded=0;orthogonalLoop=1;jettySize=auto;html=1;entryX=0;entryY=0.5;entryDx=0;entryDy=0;strokeColor=default;align=center;verticalAlign=middle;fontFamily=Helvetica;fontSize=11;fontColor=default;labelBackgroundColor=default;endArrow=none;endFill=0;" parent="1" source="3OgiTbT7xKRAJT_PE359-2" target="3OgiTbT7xKRAJT_PE359-13" edge="1">
          <mxGeometry relative="1" as="geometry" />
        </mxCell>
        <mxCell id="3OgiTbT7xKRAJT_PE359-2" value="BUCK 5V&lt;div&gt;&lt;font style=&quot;font-size: 8px;&quot;&gt;(MT1470)&lt;/font&gt;&lt;/div&gt;" style="rounded=0;whiteSpace=wrap;html=1;" parent="1" vertex="1">
          <mxGeometry x="220" y="80" width="100" height="40" as="geometry" />
        </mxCell>
        <mxCell id="3OgiTbT7xKRAJT_PE359-20" style="edgeStyle=orthogonalEdgeStyle;rounded=0;orthogonalLoop=1;jettySize=auto;html=1;strokeColor=default;align=center;verticalAlign=middle;fontFamily=Helvetica;fontSize=11;fontColor=default;labelBackgroundColor=default;endArrow=oval;endFill=1;" parent="1" source="3OgiTbT7xKRAJT_PE359-4" edge="1">
          <mxGeometry relative="1" as="geometry">
            <mxPoint x="499.9999999999998" y="100" as="targetPoint" />
          </mxGeometry>
        </mxCell>
        <mxCell id="3OgiTbT7xKRAJT_PE359-32" style="edgeStyle=orthogonalEdgeStyle;rounded=0;orthogonalLoop=1;jettySize=auto;html=1;entryX=0;entryY=0.25;entryDx=0;entryDy=0;strokeColor=default;align=center;verticalAlign=middle;fontFamily=Helvetica;fontSize=11;fontColor=default;labelBackgroundColor=default;endArrow=none;endFill=0;" parent="1" source="3OgiTbT7xKRAJT_PE359-4" target="3OgiTbT7xKRAJT_PE359-28" edge="1">
          <mxGeometry relative="1" as="geometry" />
        </mxCell>
        <mxCell id="3OgiTbT7xKRAJT_PE359-4" value="LDO 3.3V&lt;div&gt;&lt;font style=&quot;font-size: 8px;&quot;&gt;(MCP1700)&lt;/font&gt;&lt;/div&gt;" style="rounded=0;whiteSpace=wrap;html=1;" parent="1" vertex="1">
          <mxGeometry x="450" y="200" width="100" height="40" as="geometry" />
        </mxCell>
        <mxCell id="3OgiTbT7xKRAJT_PE359-8" style="edgeStyle=orthogonalEdgeStyle;rounded=0;orthogonalLoop=1;jettySize=auto;html=1;entryX=0;entryY=0.5;entryDx=0;entryDy=0;endArrow=none;endFill=0;" parent="1" source="3OgiTbT7xKRAJT_PE359-5" target="3OgiTbT7xKRAJT_PE359-2" edge="1">
          <mxGeometry relative="1" as="geometry" />
        </mxCell>
        <mxCell id="3OgiTbT7xKRAJT_PE359-5" value="" style="pointerEvents=1;fillColor=strokeColor;verticalLabelPosition=bottom;shadow=0;dashed=0;align=center;html=1;verticalAlign=top;shape=mxgraph.electrical.diodes.diode;" parent="1" vertex="1">
          <mxGeometry x="160" y="90" width="40" height="20" as="geometry" />
        </mxCell>
        <mxCell id="3OgiTbT7xKRAJT_PE359-7" style="edgeStyle=orthogonalEdgeStyle;rounded=0;orthogonalLoop=1;jettySize=auto;html=1;entryX=0;entryY=0.5;entryDx=0;entryDy=0;entryPerimeter=0;endArrow=none;endFill=0;" parent="1" source="3OgiTbT7xKRAJT_PE359-1" target="3OgiTbT7xKRAJT_PE359-5" edge="1">
          <mxGeometry relative="1" as="geometry" />
        </mxCell>
        <mxCell id="3OgiTbT7xKRAJT_PE359-22" style="edgeStyle=orthogonalEdgeStyle;rounded=0;orthogonalLoop=1;jettySize=auto;html=1;entryX=0;entryY=0.25;entryDx=0;entryDy=0;strokeColor=default;align=center;verticalAlign=middle;fontFamily=Helvetica;fontSize=11;fontColor=default;labelBackgroundColor=default;endArrow=none;endFill=0;" parent="1" source="3OgiTbT7xKRAJT_PE359-11" target="3OgiTbT7xKRAJT_PE359-21" edge="1">
          <mxGeometry relative="1" as="geometry" />
        </mxCell>
        <mxCell id="3OgiTbT7xKRAJT_PE359-11" value="BUCK 3.8V&lt;div&gt;&lt;font style=&quot;font-size: 8px;&quot;&gt;(MT1470)&lt;/font&gt;&lt;/div&gt;" style="rounded=0;whiteSpace=wrap;html=1;" parent="1" vertex="1">
          <mxGeometry x="540" y="80" width="100" height="40" as="geometry" />
        </mxCell>
        <mxCell id="3OgiTbT7xKRAJT_PE359-18" style="edgeStyle=orthogonalEdgeStyle;rounded=0;orthogonalLoop=1;jettySize=auto;html=1;entryX=0;entryY=0.5;entryDx=0;entryDy=0;strokeColor=default;align=center;verticalAlign=middle;fontFamily=Helvetica;fontSize=11;fontColor=default;labelBackgroundColor=default;endArrow=none;endFill=0;" parent="1" source="3OgiTbT7xKRAJT_PE359-13" target="3OgiTbT7xKRAJT_PE359-11" edge="1">
          <mxGeometry relative="1" as="geometry" />
        </mxCell>
        <mxCell id="3OgiTbT7xKRAJT_PE359-13" value="CHARGER &lt;font style=&quot;font-size: 8px;&quot;&gt;(MCP73871)&lt;/font&gt;" style="rounded=0;whiteSpace=wrap;html=1;" parent="1" vertex="1">
          <mxGeometry x="360" y="80" width="100" height="40" as="geometry" />
        </mxCell>
        <mxCell id="3OgiTbT7xKRAJT_PE359-27" style="edgeStyle=orthogonalEdgeStyle;rounded=0;orthogonalLoop=1;jettySize=auto;html=1;entryX=0.5;entryY=1;entryDx=0;entryDy=0;strokeColor=default;align=center;verticalAlign=middle;fontFamily=Helvetica;fontSize=11;fontColor=default;labelBackgroundColor=default;endArrow=none;endFill=0;" parent="1" source="3OgiTbT7xKRAJT_PE359-15" target="3OgiTbT7xKRAJT_PE359-13" edge="1">
          <mxGeometry relative="1" as="geometry" />
        </mxCell>
        <mxCell id="3OgiTbT7xKRAJT_PE359-15" value="Li-Ion 3.7V&lt;div&gt;2x 3.4Ah&lt;/div&gt;&lt;div&gt;&lt;font style=&quot;font-size: 8px;&quot;&gt;(NCR18650B)&lt;/font&gt;&lt;/div&gt;" style="html=1;verticalLabelPosition=bottom;align=center;labelBackgroundColor=#ffffff;verticalAlign=top;strokeWidth=1;strokeColor=#000000;shadow=0;dashed=0;shape=mxgraph.ios7.icons.battery;fontFamily=Helvetica;fontSize=11;fontColor=default;rotation=0;direction=north;" parent="1" vertex="1">
          <mxGeometry x="396.86999999999995" y="149.79" width="26.25" height="52.93" as="geometry" />
        </mxCell>
        <mxCell id="3OgiTbT7xKRAJT_PE359-21" value="NB MODULE&lt;div&gt;&lt;font style=&quot;font-size: 8px;&quot;&gt;(ME310G1)&lt;/font&gt;&lt;/div&gt;" style="rounded=1;whiteSpace=wrap;html=1;fontFamily=Helvetica;fontSize=11;fontColor=default;labelBackgroundColor=default;" parent="1" vertex="1">
          <mxGeometry x="680" y="80" width="120" height="80" as="geometry" />
        </mxCell>
        <mxCell id="3OgiTbT7xKRAJT_PE359-24" style="edgeStyle=orthogonalEdgeStyle;rounded=0;orthogonalLoop=1;jettySize=auto;html=1;entryX=0.25;entryY=0;entryDx=0;entryDy=0;strokeColor=default;align=center;verticalAlign=middle;fontFamily=Helvetica;fontSize=11;fontColor=default;labelBackgroundColor=default;endArrow=none;endFill=0;" parent="1" source="3OgiTbT7xKRAJT_PE359-23" target="3OgiTbT7xKRAJT_PE359-21" edge="1">
          <mxGeometry relative="1" as="geometry" />
        </mxCell>
        <mxCell id="3OgiTbT7xKRAJT_PE359-23" value="GPS&lt;div&gt;&lt;font style=&quot;font-size: 9px;&quot;&gt;(AHGG.202)&lt;/font&gt;&lt;/div&gt;" style="verticalLabelPosition=top;shadow=0;dashed=0;align=center;html=1;verticalAlign=bottom;shape=mxgraph.electrical.radio.aerial_-_antenna_1;fontFamily=Helvetica;fontSize=11;fontColor=default;labelBackgroundColor=default;labelPosition=center;" parent="1" vertex="1">
          <mxGeometry x="700" y="40" width="20" height="20" as="geometry" />
        </mxCell>
        <mxCell id="3OgiTbT7xKRAJT_PE359-26" style="edgeStyle=orthogonalEdgeStyle;rounded=0;orthogonalLoop=1;jettySize=auto;html=1;entryX=0.75;entryY=0;entryDx=0;entryDy=0;strokeColor=default;align=center;verticalAlign=middle;fontFamily=Helvetica;fontSize=11;fontColor=default;labelBackgroundColor=default;endArrow=none;endFill=0;" parent="1" source="3OgiTbT7xKRAJT_PE359-25" target="3OgiTbT7xKRAJT_PE359-21" edge="1">
          <mxGeometry relative="1" as="geometry" />
        </mxCell>
        <mxCell id="3OgiTbT7xKRAJT_PE359-25" value="CELL&lt;br&gt;&lt;font style=&quot;font-size: 8px;&quot;&gt;(AH3G.303)&lt;/font&gt;" style="verticalLabelPosition=top;shadow=0;dashed=0;align=center;html=1;verticalAlign=bottom;shape=mxgraph.electrical.radio.aerial_-_antenna_1;fontFamily=Helvetica;fontSize=11;fontColor=default;labelBackgroundColor=default;labelPosition=center;" parent="1" vertex="1">
          <mxGeometry x="760" y="40" width="20" height="20" as="geometry" />
        </mxCell>
        <mxCell id="3OgiTbT7xKRAJT_PE359-29" style="edgeStyle=orthogonalEdgeStyle;rounded=0;orthogonalLoop=1;jettySize=auto;html=1;entryX=0.5;entryY=1;entryDx=0;entryDy=0;strokeColor=default;align=center;verticalAlign=middle;fontFamily=Helvetica;fontSize=11;fontColor=default;labelBackgroundColor=default;endArrow=none;endFill=0;" parent="1" source="3OgiTbT7xKRAJT_PE359-28" target="3OgiTbT7xKRAJT_PE359-21" edge="1">
          <mxGeometry relative="1" as="geometry" />
        </mxCell>
        <mxCell id="3OgiTbT7xKRAJT_PE359-30" style="edgeStyle=orthogonalEdgeStyle;rounded=0;orthogonalLoop=1;jettySize=auto;html=1;exitX=0.25;exitY=0;exitDx=0;exitDy=0;entryX=0.5;entryY=1;entryDx=0;entryDy=0;strokeColor=default;align=center;verticalAlign=middle;fontFamily=Helvetica;fontSize=11;fontColor=default;labelBackgroundColor=default;endArrow=none;endFill=0;" parent="1" source="3OgiTbT7xKRAJT_PE359-28" target="3OgiTbT7xKRAJT_PE359-11" edge="1">
          <mxGeometry relative="1" as="geometry">
            <Array as="points">
              <mxPoint x="710" y="180" />
              <mxPoint x="590" y="180" />
            </Array>
          </mxGeometry>
        </mxCell>
        <mxCell id="3OgiTbT7xKRAJT_PE359-31" style="edgeStyle=orthogonalEdgeStyle;rounded=0;orthogonalLoop=1;jettySize=auto;html=1;exitX=0.75;exitY=0;exitDx=0;exitDy=0;entryX=0.75;entryY=1;entryDx=0;entryDy=0;strokeColor=default;align=center;verticalAlign=middle;fontFamily=Helvetica;fontSize=11;fontColor=default;labelBackgroundColor=default;endArrow=none;endFill=0;" parent="1" source="3OgiTbT7xKRAJT_PE359-28" target="3OgiTbT7xKRAJT_PE359-21" edge="1">
          <mxGeometry relative="1" as="geometry" />
        </mxCell>
        <mxCell id="3OgiTbT7xKRAJT_PE359-28" value="MCU&lt;div&gt;&lt;font style=&quot;font-size: 8px;&quot;&gt;(PIC32MM0256GPM048)&lt;/font&gt;&lt;/div&gt;" style="rounded=1;whiteSpace=wrap;html=1;fontFamily=Helvetica;fontSize=11;fontColor=default;labelBackgroundColor=default;" parent="1" vertex="1">
          <mxGeometry x="680" y="200" width="120" height="80" as="geometry" />
        </mxCell>
        <mxCell id="3OgiTbT7xKRAJT_PE359-35" style="edgeStyle=orthogonalEdgeStyle;rounded=0;orthogonalLoop=1;jettySize=auto;html=1;entryX=0.75;entryY=1;entryDx=0;entryDy=0;strokeColor=default;align=center;verticalAlign=middle;fontFamily=Helvetica;fontSize=11;fontColor=default;labelBackgroundColor=default;endArrow=none;endFill=0;" parent="1" source="3OgiTbT7xKRAJT_PE359-33" target="3OgiTbT7xKRAJT_PE359-28" edge="1">
          <mxGeometry relative="1" as="geometry" />
        </mxCell>
        <mxCell id="3OgiTbT7xKRAJT_PE359-33" value="Flash Memory&lt;div&gt;&lt;font style=&quot;font-size: 8px;&quot;&gt;(W25Q64FVSSIG)&lt;/font&gt;&lt;/div&gt;" style="sketch=0;html=1;aspect=fixed;strokeColor=none;shadow=0;fillColor=#000000;verticalAlign=top;labelPosition=center;verticalLabelPosition=bottom;shape=mxgraph.gcp2.memory_card;fontFamily=Helvetica;fontSize=11;fontColor=default;labelBackgroundColor=default;" parent="1" vertex="1">
          <mxGeometry x="750" y="320" width="40" height="43.01" as="geometry" />
        </mxCell>
        <mxCell id="3OgiTbT7xKRAJT_PE359-37" style="edgeStyle=orthogonalEdgeStyle;rounded=0;orthogonalLoop=1;jettySize=auto;html=1;entryX=0.25;entryY=1;entryDx=0;entryDy=0;strokeColor=default;align=center;verticalAlign=middle;fontFamily=Helvetica;fontSize=11;fontColor=default;labelBackgroundColor=default;endArrow=none;endFill=0;" parent="1" source="3OgiTbT7xKRAJT_PE359-36" target="3OgiTbT7xKRAJT_PE359-28" edge="1">
          <mxGeometry relative="1" as="geometry" />
        </mxCell>
        <mxCell id="3OgiTbT7xKRAJT_PE359-36" value="BUTTONS&lt;div&gt;&amp;amp; INDICATORS&lt;/div&gt;" style="rounded=1;whiteSpace=wrap;html=1;fontFamily=Helvetica;fontSize=11;fontColor=default;labelBackgroundColor=default;" parent="1" vertex="1">
          <mxGeometry x="550" y="320" width="80" height="40" as="geometry" />
        </mxCell>
        <mxCell id="3OgiTbT7xKRAJT_PE359-38" value="&lt;font color=&quot;#000000&quot;&gt;Rainfall Sensor&lt;/font&gt;" style="sketch=0;outlineConnect=0;fontColor=#232F3E;gradientColor=none;fillColor=#000000;strokeColor=none;dashed=0;verticalLabelPosition=bottom;verticalAlign=top;align=center;html=1;fontSize=12;fontStyle=0;aspect=fixed;pointerEvents=1;shape=mxgraph.aws4.iot_thing_humidity_sensor;fontFamily=Helvetica;labelBackgroundColor=default;" parent="1" vertex="1">
          <mxGeometry x="880" y="40" width="40" height="40" as="geometry" />
        </mxCell>
        <mxCell id="3OgiTbT7xKRAJT_PE359-39" value="&lt;font color=&quot;#000000&quot;&gt;Temperature&lt;/font&gt;&lt;div&gt;&lt;font color=&quot;#000000&quot;&gt;&amp;amp; Humidity Sensor&lt;/font&gt;&lt;/div&gt;" style="sketch=0;outlineConnect=0;fontColor=#232F3E;gradientColor=none;fillColor=#000000;strokeColor=none;dashed=0;verticalLabelPosition=bottom;verticalAlign=top;align=center;html=1;fontSize=12;fontStyle=0;aspect=fixed;pointerEvents=1;shape=mxgraph.aws4.iot_thing_temperature_humidity_sensor;fontFamily=Helvetica;labelBackgroundColor=default;" parent="1" vertex="1">
          <mxGeometry x="880" y="120" width="40" height="40" as="geometry" />
        </mxCell>
        <mxCell id="3OgiTbT7xKRAJT_PE359-41" value="" style="verticalLabelPosition=bottom;sketch=0;html=1;fillColor=#000000;strokeColor=#ffffff;verticalAlign=top;align=center;points=[[0,0.5,0],[0.125,0.25,0],[0.25,0,0],[0.5,0,0],[0.75,0,0],[0.875,0.25,0],[1,0.5,0],[0.875,0.75,0],[0.75,1,0],[0.5,1,0],[0.125,0.75,0]];pointerEvents=1;shape=mxgraph.cisco_safe.compositeIcon;bgIcon=mxgraph.cisco_safe.design.blank_device;resIcon=mxgraph.cisco_safe.design.flow_sensor_2;fontFamily=Helvetica;fontSize=11;fontColor=default;labelBackgroundColor=default;" parent="1" vertex="1">
          <mxGeometry x="880" y="240" width="40" height="40" as="geometry" />
        </mxCell>
        <mxCell id="YIj4oD_qDjWHOP-zJBgj-2" value="5V" style="text;html=1;align=center;verticalAlign=middle;whiteSpace=wrap;rounded=0;" vertex="1" parent="1">
          <mxGeometry x="310" y="80" width="60" height="30" as="geometry" />
        </mxCell>
        <mxCell id="YIj4oD_qDjWHOP-zJBgj-3" value="VBAT/5V" style="text;html=1;align=center;verticalAlign=middle;whiteSpace=wrap;rounded=0;" vertex="1" parent="1">
          <mxGeometry x="470" y="70" width="60" height="30" as="geometry" />
        </mxCell>
        <mxCell id="YIj4oD_qDjWHOP-zJBgj-4" value="VBAT" style="text;html=1;align=center;verticalAlign=middle;whiteSpace=wrap;rounded=0;" vertex="1" parent="1">
          <mxGeometry x="350" y="120" width="60" height="30" as="geometry" />
        </mxCell>
        <mxCell id="YIj4oD_qDjWHOP-zJBgj-5" value="3V3" style="text;html=1;align=center;verticalAlign=middle;whiteSpace=wrap;rounded=0;" vertex="1" parent="1">
          <mxGeometry x="580" y="190" width="60" height="30" as="geometry" />
        </mxCell>
        <mxCell id="YIj4oD_qDjWHOP-zJBgj-6" value="EN" style="text;html=1;align=center;verticalAlign=middle;whiteSpace=wrap;rounded=0;" vertex="1" parent="1">
          <mxGeometry x="570" y="149.79" width="60" height="30" as="geometry" />
        </mxCell>
        <mxCell id="YIj4oD_qDjWHOP-zJBgj-7" value="GPIO" style="text;html=1;align=center;verticalAlign=middle;whiteSpace=wrap;rounded=0;" vertex="1" parent="1">
          <mxGeometry x="690" y="160" width="60" height="20" as="geometry" />
        </mxCell>
        <mxCell id="YIj4oD_qDjWHOP-zJBgj-8" value="UART" style="text;html=1;align=center;verticalAlign=middle;whiteSpace=wrap;rounded=0;" vertex="1" parent="1">
          <mxGeometry x="760" y="159.79" width="60" height="20" as="geometry" />
        </mxCell>
        <mxCell id="YIj4oD_qDjWHOP-zJBgj-9" value="SPI" style="text;html=1;align=center;verticalAlign=middle;whiteSpace=wrap;rounded=0;" vertex="1" parent="1">
          <mxGeometry x="770" y="290" width="60" height="20" as="geometry" />
        </mxCell>
        <mxCell id="YIj4oD_qDjWHOP-zJBgj-10" value="GPIO" style="text;html=1;align=center;verticalAlign=middle;whiteSpace=wrap;rounded=0;" vertex="1" parent="1">
          <mxGeometry x="650" y="290" width="60" height="20" as="geometry" />
        </mxCell>
      </root>
    </mxGraphModel>
  </diagram>
</mxfile>
